<mxfile host="app.diagrams.net" modified="2023-09-25T16:19:06.440Z" agent="Mozilla/5.0 (Windows NT 10.0; Win64; x64) AppleWebKit/537.36 (KHTML, like Gecko) Chrome/117.0.0.0 Safari/537.36 Edg/117.0.2045.41" version="21.8.2" etag="IHWuYTLWLNFNMvRetX06" type="device">
  <diagram id="uHBDsyaV1fzHR2AeiQ1S" name="Страница — 1">
    <mxGraphModel dx="1426" dy="793" grid="1" gridSize="10" guides="1" tooltips="1" connect="1" arrows="1" fold="1" page="1" pageScale="1" pageWidth="827" pageHeight="1169" math="0" shadow="0">
      <root>
        <mxCell id="0" />
        <mxCell id="1" parent="0" />
        <mxCell id="bIrvbMO_Eubh7fwi1j1Z-16" style="edgeStyle=orthogonalEdgeStyle;rounded=0;orthogonalLoop=1;jettySize=auto;html=1;exitX=0.5;exitY=0;exitDx=0;exitDy=0;exitPerimeter=0;entryX=0.5;entryY=0;entryDx=0;entryDy=0;" edge="1" parent="1" source="bIrvbMO_Eubh7fwi1j1Z-3" target="bIrvbMO_Eubh7fwi1j1Z-11">
          <mxGeometry relative="1" as="geometry" />
        </mxCell>
        <mxCell id="bIrvbMO_Eubh7fwi1j1Z-18" style="edgeStyle=orthogonalEdgeStyle;rounded=0;orthogonalLoop=1;jettySize=auto;html=1;exitX=1;exitY=0.3333333333333333;exitDx=0;exitDy=0;exitPerimeter=0;entryX=0.5;entryY=0;entryDx=0;entryDy=0;" edge="1" parent="1" source="bIrvbMO_Eubh7fwi1j1Z-3" target="bIrvbMO_Eubh7fwi1j1Z-13">
          <mxGeometry relative="1" as="geometry" />
        </mxCell>
        <mxCell id="bIrvbMO_Eubh7fwi1j1Z-3" value="Користувач&lt;br&gt;" style="shape=umlActor;verticalLabelPosition=bottom;verticalAlign=top;html=1;outlineConnect=0;" vertex="1" parent="1">
          <mxGeometry x="50" y="315" width="30" height="60" as="geometry" />
        </mxCell>
        <mxCell id="bIrvbMO_Eubh7fwi1j1Z-27" style="edgeStyle=orthogonalEdgeStyle;rounded=0;orthogonalLoop=1;jettySize=auto;html=1;exitX=0;exitY=0.3333333333333333;exitDx=0;exitDy=0;exitPerimeter=0;entryX=1;entryY=0.5;entryDx=0;entryDy=0;" edge="1" parent="1" source="bIrvbMO_Eubh7fwi1j1Z-5" target="bIrvbMO_Eubh7fwi1j1Z-13">
          <mxGeometry relative="1" as="geometry" />
        </mxCell>
        <mxCell id="bIrvbMO_Eubh7fwi1j1Z-28" style="edgeStyle=orthogonalEdgeStyle;rounded=0;orthogonalLoop=1;jettySize=auto;html=1;exitX=0;exitY=1;exitDx=0;exitDy=0;exitPerimeter=0;entryX=1;entryY=0;entryDx=0;entryDy=0;" edge="1" parent="1" source="bIrvbMO_Eubh7fwi1j1Z-5" target="bIrvbMO_Eubh7fwi1j1Z-12">
          <mxGeometry relative="1" as="geometry">
            <Array as="points">
              <mxPoint x="620" y="390" />
              <mxPoint x="340" y="390" />
            </Array>
          </mxGeometry>
        </mxCell>
        <mxCell id="bIrvbMO_Eubh7fwi1j1Z-5" value="Віртуальний помічник&lt;br&gt;" style="shape=umlActor;verticalLabelPosition=bottom;verticalAlign=top;html=1;outlineConnect=0;" vertex="1" parent="1">
          <mxGeometry x="620" y="200" width="30" height="60" as="geometry" />
        </mxCell>
        <mxCell id="bIrvbMO_Eubh7fwi1j1Z-6" value="Зовнішні інформаційні сервиси&lt;br&gt;" style="shape=umlActor;verticalLabelPosition=bottom;verticalAlign=top;html=1;outlineConnect=0;" vertex="1" parent="1">
          <mxGeometry x="600" y="410" width="30" height="60" as="geometry" />
        </mxCell>
        <mxCell id="bIrvbMO_Eubh7fwi1j1Z-11" value="Створити бюджет" style="ellipse;whiteSpace=wrap;html=1;" vertex="1" parent="1">
          <mxGeometry x="170" y="245" width="140" height="70" as="geometry" />
        </mxCell>
        <mxCell id="bIrvbMO_Eubh7fwi1j1Z-12" value="Вести облік фінансів" style="ellipse;whiteSpace=wrap;html=1;" vertex="1" parent="1">
          <mxGeometry x="220" y="460" width="140" height="70" as="geometry" />
        </mxCell>
        <mxCell id="bIrvbMO_Eubh7fwi1j1Z-13" value="Отримувати поради" style="ellipse;whiteSpace=wrap;html=1;" vertex="1" parent="1">
          <mxGeometry x="290" y="130" width="140" height="70" as="geometry" />
        </mxCell>
        <mxCell id="bIrvbMO_Eubh7fwi1j1Z-14" value="Взаємодія з API зовнішніх інформаційних сервісів" style="ellipse;whiteSpace=wrap;html=1;" vertex="1" parent="1">
          <mxGeometry x="200" y="610" width="160" height="80" as="geometry" />
        </mxCell>
        <mxCell id="bIrvbMO_Eubh7fwi1j1Z-15" style="edgeStyle=orthogonalEdgeStyle;rounded=0;orthogonalLoop=1;jettySize=auto;html=1;exitX=1;exitY=1;exitDx=0;exitDy=0;exitPerimeter=0;entryX=-0.006;entryY=0.425;entryDx=0;entryDy=0;entryPerimeter=0;" edge="1" parent="1" source="bIrvbMO_Eubh7fwi1j1Z-3" target="bIrvbMO_Eubh7fwi1j1Z-14">
          <mxGeometry relative="1" as="geometry" />
        </mxCell>
        <mxCell id="bIrvbMO_Eubh7fwi1j1Z-17" style="edgeStyle=orthogonalEdgeStyle;rounded=0;orthogonalLoop=1;jettySize=auto;html=1;exitX=0.5;exitY=0.5;exitDx=0;exitDy=0;exitPerimeter=0;entryX=0;entryY=0.714;entryDx=0;entryDy=0;entryPerimeter=0;" edge="1" parent="1" source="bIrvbMO_Eubh7fwi1j1Z-3" target="bIrvbMO_Eubh7fwi1j1Z-12">
          <mxGeometry relative="1" as="geometry" />
        </mxCell>
        <mxCell id="bIrvbMO_Eubh7fwi1j1Z-29" style="edgeStyle=orthogonalEdgeStyle;rounded=0;orthogonalLoop=1;jettySize=auto;html=1;exitX=1;exitY=0.5;exitDx=0;exitDy=0;entryX=0;entryY=0.3333333333333333;entryDx=0;entryDy=0;entryPerimeter=0;" edge="1" parent="1" source="bIrvbMO_Eubh7fwi1j1Z-14" target="bIrvbMO_Eubh7fwi1j1Z-6">
          <mxGeometry relative="1" as="geometry" />
        </mxCell>
        <mxCell id="bIrvbMO_Eubh7fwi1j1Z-31" value="&amp;lt;&amp;lt;include&amp;gt;&amp;gt;" style="edgeStyle=none;html=1;endArrow=open;verticalAlign=bottom;dashed=1;labelBackgroundColor=none;rounded=0;exitX=0.5;exitY=1;exitDx=0;exitDy=0;entryX=0.4;entryY=0.029;entryDx=0;entryDy=0;entryPerimeter=0;" edge="1" parent="1" source="bIrvbMO_Eubh7fwi1j1Z-11" target="bIrvbMO_Eubh7fwi1j1Z-12">
          <mxGeometry width="160" relative="1" as="geometry">
            <mxPoint x="330" y="390" as="sourcePoint" />
            <mxPoint x="490" y="390" as="targetPoint" />
          </mxGeometry>
        </mxCell>
        <mxCell id="bIrvbMO_Eubh7fwi1j1Z-32" value="&amp;lt;&amp;lt;include&amp;gt;&amp;gt;" style="edgeStyle=none;html=1;endArrow=open;verticalAlign=bottom;dashed=1;labelBackgroundColor=none;rounded=0;entryX=0.9;entryY=0.213;entryDx=0;entryDy=0;entryPerimeter=0;" edge="1" parent="1" source="bIrvbMO_Eubh7fwi1j1Z-13" target="bIrvbMO_Eubh7fwi1j1Z-14">
          <mxGeometry width="160" relative="1" as="geometry">
            <mxPoint x="330" y="390" as="sourcePoint" />
            <mxPoint x="490" y="390" as="targetPoint" />
            <Array as="points">
              <mxPoint x="430" y="490" />
            </Array>
          </mxGeometry>
        </mxCell>
        <mxCell id="bIrvbMO_Eubh7fwi1j1Z-33" value="&amp;lt;&amp;lt;extend&amp;gt;&amp;gt;" style="edgeStyle=none;html=1;startArrow=open;endArrow=none;startSize=12;verticalAlign=bottom;dashed=1;labelBackgroundColor=none;rounded=0;entryX=1;entryY=0.5;entryDx=0;entryDy=0;" edge="1" parent="1" source="bIrvbMO_Eubh7fwi1j1Z-12" target="bIrvbMO_Eubh7fwi1j1Z-11">
          <mxGeometry width="160" relative="1" as="geometry">
            <mxPoint x="330" y="390" as="sourcePoint" />
            <mxPoint x="490" y="390" as="targetPoint" />
          </mxGeometry>
        </mxCell>
        <mxCell id="bIrvbMO_Eubh7fwi1j1Z-35" value="&amp;lt;&amp;lt;extend&amp;gt;&amp;gt;" style="edgeStyle=none;html=1;startArrow=open;endArrow=none;startSize=12;verticalAlign=bottom;dashed=1;labelBackgroundColor=none;rounded=0;entryX=0.829;entryY=0.957;entryDx=0;entryDy=0;entryPerimeter=0;exitX=0.679;exitY=0.071;exitDx=0;exitDy=0;exitPerimeter=0;" edge="1" parent="1" source="bIrvbMO_Eubh7fwi1j1Z-12" target="bIrvbMO_Eubh7fwi1j1Z-13">
          <mxGeometry width="160" relative="1" as="geometry">
            <mxPoint x="330" y="390" as="sourcePoint" />
            <mxPoint x="490" y="390" as="targetPoint" />
          </mxGeometry>
        </mxCell>
      </root>
    </mxGraphModel>
  </diagram>
</mxfile>
